<?xml version="1.0" encoding="UTF-8"?>
<svg version="1.1" xmlns="http://www.w3.org/2000/svg" width="512" height="512">
<path d="M0 0 C168.96 0 337.92 0 512 0 C512 168.96 512 337.92 512 512 C343.04 512 174.08 512 0 512 C0 343.04 0 174.08 0 0 Z " fill="#FEFEFE" transform="translate(0,0)"/>
<path d="M0 0 C41.91 0 83.82 0 127 0 C125.6164638 3.45884051 124.38205173 6.24827233 122.5234375 9.38671875 C122.02569824 10.22952393 121.52795898 11.0723291 121.01513672 11.94067383 C120.4738916 12.84712646 119.93264648 13.7535791 119.375 14.6875 C118.80668457 15.64358154 118.23836914 16.59966309 117.65283203 17.5847168 C108.4370587 33.0326413 99.07071766 48.39541371 89.22436523 63.45043945 C79.80852431 77.91091817 70.84955006 92.69340787 62.18359375 107.61376953 C59.6406945 111.97444441 56.96389907 116.20431351 54.05859375 120.3359375 C52.82105542 122.13285334 52.82105542 122.13285334 52 125 C75.43 125 98.86 125 123 125 C122.67 124.34 122.34 123.68 122 123 C120.60868402 108.40557518 121.66499859 94.79158073 131 83 C132.29074371 80.24038963 132.29074371 80.24038963 133 78 C132.319375 77.95875 131.63875 77.9175 130.9375 77.875 C125.45262062 76.24120614 121.47364411 72.31005326 118.5625 67.4375 C115.62335547 60.83709353 115.90958524 52.50954865 118.0625 45.6875 C121.38451129 38.39753077 126.90878614 33.10327346 134.19140625 29.85546875 C140.36924784 27.97376178 146.66797514 27.5809836 152.6875 30.14453125 C157.31723486 33.03050084 160.47669205 36.17280218 163 41 C163 41.66 163 42.32 163 43 C163.80824219 42.72285156 164.61648437 42.44570312 165.44921875 42.16015625 C167.05216797 41.61681641 167.05216797 41.61681641 168.6875 41.0625 C169.74324219 40.70285156 170.79898438 40.34320313 171.88671875 39.97265625 C177.08201069 38.34953493 181.5480108 37.89309825 187 38 C186.01 38.495 186.01 38.495 185 39 C185 39.66 185 40.32 185 41 C183.72898438 41.226875 182.45796875 41.45375 181.1484375 41.6875 C175.51385516 42.94795409 170.70239644 45.30383616 165.625 48 C164.70759033 48.48186768 163.79018066 48.96373535 162.8449707 49.46020508 C155.54573078 53.42579125 149.64518866 57.90531154 144 64 C148.455 63.505 148.455 63.505 153 63 C152.195625 63.928125 151.39125 64.85625 150.5625 65.8125 C138.21771586 79.45258488 138.21771586 79.45258488 131 96 C131.78375 95.505 132.5675 95.01 133.375 94.5 C136 93 136 93 138 93 C136.91052687 95.99605111 135.72936756 98.41219402 133.96875 101.09375 C131.46015236 105.43586088 131.33733769 109.51086019 131.25 114.4375 C131.22035156 115.26443359 131.19070312 116.09136719 131.16015625 116.94335938 C131.0901549 118.96173177 131.04273299 120.98086623 131 123 C131.66 123 132.32 123 133 123 C133.20753906 123.59425781 133.41507813 124.18851562 133.62890625 124.80078125 C136.46329229 132.42634703 140.1848913 140.1848913 146 146 C146.66 145.34 147.32 144.68 148 144 C148.391875 144.4125 148.78375 144.825 149.1875 145.25 C159.1881645 154.905814 177.05472094 163.93848091 191.125 164.25 C200.61030445 164.04907026 208.88664225 159.86422342 217.1875 155.625 C218.13302734 155.15578125 219.07855469 154.6865625 220.05273438 154.203125 C225.40562514 151.50243307 230.18413972 148.56141129 235 145 C235.72960937 144.67644531 236.45921875 144.35289062 237.2109375 144.01953125 C239.90704962 142.48310054 241.01644552 140.30582987 242.625 137.6875 C243.21539062 136.74261719 243.80578125 135.79773438 244.4140625 134.82421875 C245.85417186 132.25968903 246.98588998 129.7561703 248 127 C248.66 127 249.32 127 250 127 C250.39449772 117.13755693 250.6066874 108.5167185 246.875 99.1875 C246 97 246 97 246 95 C247.65 95.66 249.3 96.32 251 97 C247.89873374 85.87192695 241.88333757 77.54053479 234.015625 69.19140625 C232.19143615 67.20813116 230.572801 65.18499885 229 63 C231.97 63.33 234.94 63.66 238 64 C232.40756246 58.67198031 226.94424639 54.41466489 220 51 C220 50.34 220 49.68 220 49 C219.29488281 48.89429688 218.58976563 48.78859375 217.86328125 48.6796875 C214.6379556 47.91405767 212.11802013 46.66899619 209.1875 45.125 C204.52722082 42.72861417 199.94829425 40.71287109 195 39 C195 38.67 195 38.34 195 38 C203.39602551 37.44026497 211.15077426 40.24216393 219 43 C219.061875 42.46375 219.12375 41.9275 219.1875 41.375 C220.84057007 36.54294902 224.18933208 33.19499652 228.5 30.625 C234.9074267 27.7718817 242.26995944 27.58051234 248.8125 30.0703125 C255.36731366 33.7274189 261.28526084 38.79946447 264.1640625 45.8515625 C265.93666133 52.52779922 266.30925777 60.16468666 263.25 66.5 C262.53642367 67.68929388 261.7886161 68.85908118 261 70 C260.360625 70.928125 259.72125 71.85625 259.0625 72.8125 C256.86050397 75.14795033 254.88164467 76.59612183 252 78 C251.01 78 250.02 78 249 78 C249.721875 78.825 250.44375 79.65 251.1875 80.5 C258.88347457 91.17789064 260.51248554 106.28104068 260 119 C259.96777344 119.96292969 259.93554688 120.92585938 259.90234375 121.91796875 C258.85571753 132.84120861 251.95424098 142.72511853 244 150.0625 C242.69633081 151.08082794 241.3615082 152.06040404 240 153 C239.21882812 153.54011719 238.43765625 154.08023438 237.6328125 154.63671875 C232.01502387 158.25065442 226.47897344 160.42850431 220 162 C220 161.34 220 160.68 220 160 C218.28103516 160.83144531 218.28103516 160.83144531 216.52734375 161.6796875 C214.99753266 162.41174434 213.46757702 163.14349916 211.9375 163.875 C210.80924805 164.42220703 210.80924805 164.42220703 209.65820312 164.98046875 C199.14648994 169.98604646 189.94308524 171.73793739 178.7265625 168.0703125 C174.29579661 166.33101471 170.03973727 164.23920102 165.78515625 162.109375 C162.98438643 160.64696378 162.98438643 160.64696378 160 162 C145.04492141 157.3520627 133.35509277 147.93596525 126 134 C125.01 131.525 125.01 131.525 124 129 C123.67 137.91 123.34 146.82 123 156 C78.78 156 34.56 156 -11 156 C-6.49659864 146.99319728 -6.49659864 146.99319728 -4.15234375 143.22265625 C-3.63591309 142.38951904 -3.11948242 141.55638184 -2.58740234 140.69799805 C-1.77070068 139.39342651 -1.77070068 139.39342651 -0.9375 138.0625 C-0.0705249 136.66801636 -0.0705249 136.66801636 0.81396484 135.24536133 C3.78088773 130.48906661 6.79058989 125.76663897 9.87475586 121.08569336 C15.70970505 112.22673418 21.11261709 103.13495201 26.5 94 C32.23089847 84.28387564 38.02071464 74.65180252 44.234375 65.234375 C47.92086414 59.63513735 51.45142265 53.93719114 55 48.25 C55.64807617 47.21230469 56.29615234 46.17460937 56.96386719 45.10546875 C59.67633327 40.75520619 62.36217064 36.39638226 65 32 C43.55 31.67 22.1 31.34 0 31 C0 20.77 0 10.54 0 0 Z " fill="#242021" transform="translate(72,149)"/>
<path d="M0 0 C4.0984187 3.96939441 7.28753021 8.10771485 10 13.125 C10.48726563 14.011875 10.97453125 14.89875 11.4765625 15.8125 C16.55845024 26.71442678 17.34663107 40.69543539 13.9609375 52.265625 C8.33335853 66.53892586 -2.02476437 77.15429605 -15.875 83.4375 C-33.9217883 90.64468383 -53.39229606 90.10244489 -71.3125 82.76953125 C-83.98381332 76.86153141 -92.09955114 67.98872041 -97.9375 55.3125 C-102.29729241 43.26570518 -101.45381007 28.41838452 -97.02734375 16.5078125 C-90.14982833 2.25976981 -78.81149803 -6.40009773 -64.2734375 -11.9296875 C-42.90765316 -18.09975887 -17.17124961 -14.45848077 0 0 Z " fill="#252122" transform="translate(434,219.875)"/>
<path d="M0 0 C4.62973486 2.88596959 7.78919205 6.02827093 10.3125 10.85546875 C10.3125 11.51546875 10.3125 12.17546875 10.3125 12.85546875 C11.12074219 12.57832031 11.92898437 12.30117187 12.76171875 12.015625 C13.83035156 11.65339844 14.89898437 11.29117188 16 10.91796875 C17.58361328 10.37849609 17.58361328 10.37849609 19.19921875 9.828125 C24.39451069 8.20500368 28.8605108 7.748567 34.3125 7.85546875 C33.6525 8.18546875 32.9925 8.51546875 32.3125 8.85546875 C32.3125 9.51546875 32.3125 10.17546875 32.3125 10.85546875 C31.04148438 11.08234375 29.77046875 11.30921875 28.4609375 11.54296875 C22.82635516 12.80342284 18.01489644 15.15930491 12.9375 17.85546875 C12.02009033 18.33733643 11.10268066 18.8192041 10.1574707 19.31567383 C2.85823078 23.28126 -3.04231134 27.76078029 -8.6875 33.85546875 C-4.2325 33.36046875 -4.2325 33.36046875 0.3125 32.85546875 C-0.491875 33.78359375 -1.29625 34.71171875 -2.125 35.66796875 C-14.46978414 49.30805363 -14.46978414 49.30805363 -21.6875 65.85546875 C-20.90375 65.36046875 -20.12 64.86546875 -19.3125 64.35546875 C-16.6875 62.85546875 -16.6875 62.85546875 -14.6875 62.85546875 C-15.77697313 65.85151986 -16.95813244 68.26766277 -18.71875 70.94921875 C-21.22734764 75.29132963 -21.35016231 79.36632894 -21.4375 84.29296875 C-21.48197266 85.53336914 -21.48197266 85.53336914 -21.52734375 86.79882812 C-21.5973451 88.81720052 -21.64476701 90.83633498 -21.6875 92.85546875 C-21.0275 92.85546875 -20.3675 92.85546875 -19.6875 92.85546875 C-19.47996094 93.44972656 -19.27242188 94.04398437 -19.05859375 94.65625 C-16.22420771 102.28181578 -12.5026087 110.04036005 -6.6875 115.85546875 C-6.0275 115.19546875 -5.3675 114.53546875 -4.6875 113.85546875 C-4.295625 114.26796875 -3.90375 114.68046875 -3.5 115.10546875 C6.5006645 124.76128275 24.36722094 133.79394966 38.4375 134.10546875 C47.92280445 133.90453901 56.19914225 129.71969217 64.5 125.48046875 C65.44552734 125.01125 66.39105469 124.54203125 67.36523438 124.05859375 C72.71812514 121.35790182 77.49663972 118.41688004 82.3125 114.85546875 C83.04210937 114.53191406 83.77171875 114.20835937 84.5234375 113.875 C87.21954962 112.33856929 88.32894552 110.16129862 89.9375 107.54296875 C90.52789062 106.59808594 91.11828125 105.65320313 91.7265625 104.6796875 C93.16667186 102.11515778 94.29838998 99.61163905 95.3125 96.85546875 C95.9725 96.85546875 96.6325 96.85546875 97.3125 96.85546875 C97.70699772 86.99302568 97.9191874 78.37218725 94.1875 69.04296875 C93.3125 66.85546875 93.3125 66.85546875 93.3125 64.85546875 C94.9625 65.51546875 96.6125 66.17546875 98.3125 66.85546875 C95.21123374 55.7273957 89.19583757 47.39600354 81.328125 39.046875 C79.50393615 37.06359991 77.885301 35.0404676 76.3125 32.85546875 C79.2825 33.18546875 82.2525 33.51546875 85.3125 33.85546875 C79.72006246 28.52744906 74.25674639 24.27013364 67.3125 20.85546875 C67.3125 20.19546875 67.3125 19.53546875 67.3125 18.85546875 C66.25482422 18.69691406 66.25482422 18.69691406 65.17578125 18.53515625 C61.9504556 17.76952642 59.43052013 16.52446494 56.5 14.98046875 C51.83972082 12.58408292 47.26079425 10.56833984 42.3125 8.85546875 C42.3125 8.52546875 42.3125 8.19546875 42.3125 7.85546875 C50.70852551 7.29573372 58.46327426 10.09763268 66.3125 12.85546875 C66.374375 12.31921875 66.43625 11.78296875 66.5 11.23046875 C68.15307007 6.39841777 71.50183208 3.05046527 75.8125 0.48046875 C82.2199267 -2.37264955 89.58245944 -2.56401891 96.125 -0.07421875 C102.67981366 3.58288765 108.59776084 8.65493322 111.4765625 15.70703125 C113.24916133 22.38326797 113.62175777 30.02015541 110.5625 36.35546875 C109.84892367 37.54476263 109.1011161 38.71454993 108.3125 39.85546875 C107.3534375 41.24765625 107.3534375 41.24765625 106.375 42.66796875 C104.17300397 45.00341908 102.19414467 46.45159058 99.3125 47.85546875 C98.3225 47.85546875 97.3325 47.85546875 96.3125 47.85546875 C97.034375 48.68046875 97.75625 49.50546875 98.5 50.35546875 C106.19597457 61.03335939 107.82498554 76.13650943 107.3125 88.85546875 C107.28027344 89.81839844 107.24804688 90.78132813 107.21484375 91.7734375 C106.16821753 102.69667736 99.26674098 112.58058728 91.3125 119.91796875 C90.00883081 120.93629669 88.6740082 121.91587279 87.3125 122.85546875 C86.53132812 123.39558594 85.75015625 123.93570313 84.9453125 124.4921875 C79.32752387 128.10612317 73.79147344 130.28397306 67.3125 131.85546875 C67.3125 131.19546875 67.3125 130.53546875 67.3125 129.85546875 C65.59353516 130.68691406 65.59353516 130.68691406 63.83984375 131.53515625 C62.31003266 132.26721309 60.78007702 132.99896791 59.25 133.73046875 C58.12174805 134.27767578 58.12174805 134.27767578 56.97070312 134.8359375 C46.45898994 139.84151521 37.25558524 141.59340614 26.0390625 137.92578125 C21.60829661 136.18648346 17.35223727 134.09466977 13.09765625 131.96484375 C10.29688643 130.50243253 10.29688643 130.50243253 7.3125 131.85546875 C-7.63093346 127.21115068 -19.35239905 117.79216056 -26.6875 103.85546875 C-27.6775 101.54546875 -28.6675 99.23546875 -29.6875 96.85546875 C-53.4475 96.52546875 -77.2075 96.19546875 -101.6875 95.85546875 C-101.3575 94.86546875 -101.0275 93.87546875 -100.6875 92.85546875 C-100.6875 93.51546875 -100.6875 94.17546875 -100.6875 94.85546875 C-77.2575 94.85546875 -53.8275 94.85546875 -29.6875 94.85546875 C-30.0175 94.19546875 -30.3475 93.53546875 -30.6875 92.85546875 C-32.07881598 78.26104393 -31.02250141 64.64704948 -21.6875 52.85546875 C-20.39675629 50.09585838 -20.39675629 50.09585838 -19.6875 47.85546875 C-20.368125 47.81421875 -21.04875 47.77296875 -21.75 47.73046875 C-27.23487938 46.09667489 -31.21385589 42.16552201 -34.125 37.29296875 C-37.06414453 30.69256228 -36.77791476 22.3650174 -34.625 15.54296875 C-31.30298871 8.25299952 -25.77871386 2.95874221 -18.49609375 -0.2890625 C-12.31825216 -2.17076947 -6.01952486 -2.56354765 0 0 Z " fill="#2B2728" transform="translate(224.6875,179.14453125)"/>
<path d="M0 0 C5.02914185 3.04829824 8.89586351 8.35422701 11.5 13.5625 C12.35321816 22.0581151 11.94999646 28.77054461 6.5 35.5625 C1.1154828 41.37276972 -3.94545592 43.58798842 -11.875 43.9375 C-17.94643413 43.8055123 -22.7165796 42.40982546 -27.03125 37.99609375 C-28.2287421 36.55144485 -29.36882458 35.05964394 -30.5 33.5625 C-31.16 33.2325 -31.82 32.9025 -32.5 32.5625 C-35.28352921 26.68616056 -35.66225064 19.5573016 -33.84765625 13.3203125 C-31.25396575 7.598609 -26.95868553 2.85808774 -21.734375 -0.609375 C-15.60440205 -2.88132302 -6.03256927 -2.60065486 0 0 Z " fill="#F9F8F8" transform="translate(402.5,235.4375)"/>
<path d="M0 0 C6.12859165 0.11325939 10.76283384 4.69617719 15.125 8.5625 C22.24865999 15.98749925 28.25618629 24.28647102 28.75 34.8125 C28.590165 38.6934937 28.20727773 41.20034282 25.75 44.25 C21.26774361 48.19865444 17.8772091 47.81301497 12.125 47.5625 C10.1170923 47.28068839 8.1112302 46.96993184 6.125 46.5625 C6.15722656 45.91925781 6.18945312 45.27601563 6.22265625 44.61328125 C6.11924598 36.55876998 3.08182023 31.80719102 -1.6484375 25.60546875 C-6.04026197 19.60330863 -7.88664212 14.91989726 -6.875 7.5625 C-4.09830097 0.80184149 -4.09830097 0.80184149 0 0 Z " fill="#2B2728" transform="translate(282.875,236.4375)"/>
<path d="M0 0 C3.36636092 3.11388385 4.38822594 6.36405823 4.9375 10.8125 C4.73108392 19.11501358 -1.19870931 25.90063302 -5.87670898 32.38696289 C-8.2895787 35.85182492 -8.23163204 38.78225301 -8.42578125 42.90625 C-9 45 -9 45 -10.734375 46.26171875 C-15.73626684 47.89164558 -21.07877432 47.7766657 -25.9375 45.8125 C-29.79620169 42.42151973 -31.20292041 39.5369924 -31.5625 34.4375 C-31.1669092 22.86216926 -22.72471242 12.5843517 -14.76953125 4.82421875 C-9.85243082 0.60109807 -6.49413745 -1.43091164 0 0 Z " fill="#292626" transform="translate(246,237)"/>
<path d="M0 0 C2.64 0 5.28 0 8 0 C8.12375 0.639375 8.2475 1.27875 8.375 1.9375 C8.58125 2.618125 8.7875 3.29875 9 4 C9.66 4.33 10.32 4.66 11 5 C11.08097324 7.27024968 11.13917704 9.54132075 11.1875 11.8125 C11.22230469 13.07707031 11.25710937 14.34164063 11.29296875 15.64453125 C11 19 11 19 9.703125 20.92578125 C6.81449871 22.74773591 4.30788506 22.34819843 1 22 C-1.20703125 20.92578125 -1.20703125 20.92578125 -3 19 C-3.390625 15.64453125 -3.390625 15.64453125 -3.25 11.8125 C-3.21390625 10.54019531 -3.1778125 9.26789063 -3.140625 7.95703125 C-3.09421875 6.98121094 -3.0478125 6.00539063 -3 5 C-2.01 4.67 -1.02 4.34 0 4 C0 2.68 0 1.36 0 0 Z " fill="#E6E6E6" transform="translate(241,328)"/>
<path d="M0 0 C1.1653125 -0.00128906 2.330625 -0.00257813 3.53125 -0.00390625 C4.7584375 -0.00003906 5.985625 0.00382812 7.25 0.0078125 C9.09078125 0.00201172 9.09078125 0.00201172 10.96875 -0.00390625 C12.71671875 -0.00197266 12.71671875 -0.00197266 14.5 0 C15.57765625 0.00112793 16.6553125 0.00225586 17.765625 0.00341797 C20.25 0.1328125 20.25 0.1328125 21.25 1.1328125 C21.29063832 2.79898365 21.292721 4.46669345 21.25 6.1328125 C20.31027344 6.51373047 20.31027344 6.51373047 19.3515625 6.90234375 C18.53429687 7.24652344 17.71703125 7.59070313 16.875 7.9453125 C16.06289063 8.28175781 15.25078125 8.61820312 14.4140625 8.96484375 C11.94852542 10.07720332 11.94852542 10.07720332 10.25 13.1328125 C7.3125 13.5078125 7.3125 13.5078125 4.25 13.1328125 C2.8125 11.8203125 2.8125 11.8203125 1.25 10.1328125 C-1.06648799 9.09438685 -3.39903024 8.090615 -5.75 7.1328125 C-6.75 6.1328125 -6.75 6.1328125 -6.875 3.6328125 C-6.64082605 -1.05066645 -4.10887683 0.00430056 0 0 Z " fill="#373435" transform="translate(255.75,277.8671875)"/>
<path d="M0 0 C2.87097761 0.85353388 5.21948617 2.12681423 7.8125 3.625 C12.96498015 5.8476385 17.16207348 5.52512186 22.5 4 C23.325 3.67 24.15 3.34 25 3 C24.0195412 5.58484592 23.06077857 6.94843031 20.9375 8.75 C15.07241889 11.2457792 9.12204087 10.04204951 3 9 C-0.85945419 8.80776665 -4.29098659 8.7636622 -8 10 C-12.61450983 10.52712565 -15.95973686 10.62849232 -20 8.1875 C-22 6 -22 6 -23 3 C-21.7315625 3.495 -21.7315625 3.495 -20.4375 4 C-13.73355327 5.95023905 -9.19570448 5.09785224 -3 2 C-2.01 1.34 -1.02 0.68 0 0 Z " fill="#343031" transform="translate(262,295)"/>
<path d="M0 0 C9.625 -0.25 9.625 -0.25 13 2 C13.27341843 5.07595739 13.06959725 7.66747982 12.4375 10.6875 C11.77798502 13.1457356 11.77798502 13.1457356 13 16 C11.35 15.67 9.7 15.34 8 15 C7.67 13.68 7.34 12.36 7 11 C6.01 11 5.02 11 4 11 C4 12.65 4 14.3 4 16 C2.68 16 1.36 16 0 16 C0 10.72 0 5.44 0 0 Z " fill="#333031" transform="translate(267,334)"/>
<path d="M0 0 C1.32 0 2.64 0 4 0 C4.33 3.96 4.66 7.92 5 12 C6.65 11.67 8.3 11.34 10 11 C10.33 7.37 10.66 3.74 11 0 C11.99 0 12.98 0 14 0 C14.0810206 2.10353495 14.13919907 4.20795952 14.1875 6.3125 C14.22230469 7.48425781 14.25710937 8.65601563 14.29296875 9.86328125 C14 13 14 13 12.703125 14.89453125 C9.82451881 16.76298435 7.32074162 16.34955175 4 16 C1.79296875 14.89453125 1.79296875 14.89453125 0 13 C-0.390625 9.86328125 -0.390625 9.86328125 -0.25 6.3125 C-0.21390625 5.13300781 -0.1778125 3.95351563 -0.140625 2.73828125 C-0.09421875 1.83464844 -0.0478125 0.93101562 0 0 Z " fill="#3A3738" transform="translate(238,334)"/>
<path d="M0 0 C3.63 0 7.26 0 11 0 C9.875 5.625 9.875 5.625 7.4375 8.8125 C6.98246094 9.41707031 6.52742187 10.02164062 6.05859375 10.64453125 C5.70925781 11.09183594 5.35992187 11.53914063 5 12 C7.97 12.495 7.97 12.495 11 13 C11 13.99 11 14.98 11 16 C7.04 16 3.08 16 -1 16 C-0.05638599 12.22554397 0.90252063 10.37507654 3.0625 7.25 C3.88427734 6.05117188 3.88427734 6.05117188 4.72265625 4.828125 C5.14417969 4.22484375 5.56570312 3.6215625 6 3 C4.02 3 2.04 3 0 3 C0 2.01 0 1.02 0 0 Z " fill="#2D292A" transform="translate(213,334)"/>
<path d="M0 0 C1.32 0 2.64 0 4 0 C4 5.28 4 10.56 4 16 C2.68 16 1.36 16 0 16 C0 10.72 0 5.44 0 0 Z " fill="#3A3637" transform="translate(295,334)"/>
<path d="M0 0 C2.475 0.99 2.475 0.99 5 2 C5 3.98 5 5.96 5 8 C2 8 -1 8 -4 8 C-4 6.02 -4 4.04 -4 2 C-2.68 2 -1.36 2 0 2 C0 1.34 0 0.68 0 0 Z " fill="#464243" transform="translate(275,334)"/>
<path d="M0 0 C1 1 1 1 1.0625 3.5625 C1.041875 4.366875 1.02125 5.17125 1 6 C0.01 5.34 -0.98 4.68 -2 4 C-6.14776273 3.71337567 -6.14776273 3.71337567 -10 5 C-9.67 3.35 -9.34 1.7 -9 0 C-5.50340123 -1.16553292 -3.55568859 -0.77297578 0 0 Z " fill="#E1E1E1" transform="translate(293,251)"/>
<path d="M0 0 C0.33 1.65 0.66 3.3 1 5 C0.34 4.67 -0.32 4.34 -1 4 C-5.26446708 3.54920374 -5.26446708 3.54920374 -8.875 5.5 C-9.24625 5.995 -9.6175 6.49 -10 7 C-10.25 4.6875 -10.25 4.6875 -10 2 C-6.86993817 -1.6116098 -4.40477201 -1.101193 0 0 Z " fill="#EEEEEE" transform="translate(242,251)"/>
<path d="M0 0 C-0.99 0.495 -0.99 0.495 -2 1 C-2 1.66 -2 2.32 -2 3 C-3.91583647 3.1958009 -5.83272539 3.38132214 -7.75 3.5625 C-9.35101563 3.71912109 -9.35101563 3.71912109 -10.984375 3.87890625 C-13.64141204 3.98560074 -15.49960572 3.81930395 -18 3 C-11.88595404 1.14256832 -6.41481258 -0.42765417 0 0 Z " fill="#696768" transform="translate(259,187)"/>
<path d="M0 0 C2.64 0 5.28 0 8 0 C8.33 1.32 8.66 2.64 9 4 C6.03 4 3.06 4 0 4 C0 2.68 0 1.36 0 0 Z " fill="#858384" transform="translate(241,328)"/>
<path d="M0 0 C6.41481258 -0.42765417 11.88595404 1.14256832 18 3 C11.98644603 4.81361152 5.60303808 3.71114746 0 1 C0 0.67 0 0.34 0 0 Z " fill="#626060" transform="translate(267,187)"/>
<path d="M0 0 C0.66 0.33 1.32 0.66 2 1 C0.92173635 2.27513763 -0.16285519 3.54492569 -1.25 4.8125 C-1.85328125 5.52019531 -2.4565625 6.22789062 -3.078125 6.95703125 C-4.92370398 8.91889671 -6.79945332 10.45669625 -9 12 C-7.55575365 8.76138697 -5.74227753 6.38030837 -3.375 3.75 C-2.74335938 3.04359375 -2.11171875 2.3371875 -1.4609375 1.609375 C-0.97882813 1.07828125 -0.49671875 0.5471875 0 0 Z " fill="#4A4748" transform="translate(232,241)"/>
<path d="M0 0 C-1.55603771 3.81936528 -3.95604931 6.26044438 -7 9 C-7.66 9 -8.32 9 -9 9 C-7.45665977 5.21180126 -4.44676575 0 0 0 Z " fill="#444041" transform="translate(202,182)"/>
<path d="M0 0 C2.475 0.495 2.475 0.495 5 1 C4.67 2.32 4.34 3.64 4 5 C2.68 5 1.36 5 0 5 C0 3.35 0 1.7 0 0 Z " fill="#F2F2F2" transform="translate(271,337)"/>
<path d="M0 0 C-0.33 0.33 -0.66 0.66 -1 1 C-1.23427778 3.01594582 -1.41336124 5.038474 -1.5625 7.0625 C-1.64628906 8.16722656 -1.73007813 9.27195312 -1.81640625 10.41015625 C-1.87699219 11.26480469 -1.93757812 12.11945313 -2 13 C-2.33 13 -2.66 13 -3 13 C-3 9.04 -3 5.08 -3 1 C-4.32 0.67 -5.64 0.34 -7 0 C-3.98968256 -0.93423645 -3.13349732 -1.04449911 0 0 Z " fill="#C6C4C5" transform="translate(245,333)"/>
<path d="M0 0 C2.31 0.66 4.62 1.32 7 2 C7 2.33 7 2.66 7 3 C5.329375 3.433125 5.329375 3.433125 3.625 3.875 C-0.00291092 4.69241329 -0.00291092 4.69241329 -2 7 C-2.125 4.625 -2.125 4.625 -2 2 C-1.34 1.34 -0.68 0.68 0 0 Z " fill="#D8D8D8" transform="translate(234,251)"/>
</svg>
